<svg xmlns="http://www.w3.org/2000/svg" xmlns:xlink="http://www.w3.org/1999/xlink" version="1.1"
  x="0px" y="0px" viewBox="0 0 100 125" style="enable-background:new 0 0 100 100;"
  xml:space="preserve">
  <g>
    <path d="M62.8,25.5c-0.8,0-1.5,0.7-1.5,1.5v22.7c0,6.3-5.1,11.4-11.4,11.4S38.4,56,38.4,49.7V27c0-0.8-0.7-1.5-1.5-1.5   s-1.5,0.7-1.5,1.5v22.7c0,8,6.5,14.4,14.4,14.4s14.4-6.5,14.4-14.4V27C64.3,26.2,63.6,25.5,62.8,25.5z"/>
    <path d="M49.8,35.9c0.8,0,1.5-0.7,1.5-1.5V27c0-0.8-0.7-1.5-1.5-1.5s-1.5,0.7-1.5,1.5v7.4C48.3,35.3,49,35.9,49.8,35.9z"/>
    <path d="M56.1,35.9c0.8,0,1.5-0.7,1.5-1.5V27c0-0.8-0.7-1.5-1.5-1.5s-1.5,0.7-1.5,1.5v7.4C54.6,35.3,55.3,35.9,56.1,35.9z"/>
    <path d="M43.3,35.9c0.8,0,1.5-0.7,1.5-1.5V27c0-0.8-0.7-1.5-1.5-1.5s-1.5,0.7-1.5,1.5v7.4C41.8,35.3,42.4,35.9,43.3,35.9z"/>
    <circle cx="45.5" cy="45.8" r="1.7"/><circle cx="54.4" cy="45.8" r="1.7"/>
    <path d="M70.2,15.6c-12.4-7.2-27.9-7.2-40.4,0c-12.4,7.2-20.2,20.6-20.2,35s7.7,27.8,20.2,35c2.1,1.2,4.2,2.2,6.4,3   c0.1,0.1,0.2,0.1,0.4,0.1c4.3,1.5,8.9,2.3,13.4,2.3c4.5,0,9.1-0.8,13.4-2.3c0.1,0,0.3-0.1,0.4-0.1c2.2-0.8,4.3-1.8,6.4-3   c12.4-7.2,20.2-20.6,20.2-35v0C90.4,36.1,82.6,22.7,70.2,15.6z M64.6,84.9v-8.3c0-0.8-0.7-1.5-1.5-1.5s-1.5,0.7-1.5,1.5V86   c-7.5,2.4-15.7,2.4-23.2,0v-9.4c0-0.8-0.7-1.5-1.5-1.5s-1.5,0.7-1.5,1.5v8.3c-1.4-0.6-2.8-1.3-4.1-2c-0.4-0.2-0.8-0.5-1.2-0.7   c0-0.1,0-0.2,0-0.3V71.8c0-1.6,1.3-2.9,2.9-2.9h6c1,0,2,0.4,2.6,1.3c2,2.5,5,3.9,8.2,3.9c3.2,0,6.2-1.4,8.2-3.9   c0.6-0.8,1.6-1.2,2.6-1.2h6.1c1.6,0,2.9,1.3,2.9,2.9v10.4c-0.4,0.2-0.7,0.5-1.1,0.7C67.4,83.6,66,84.3,64.6,84.9z M72.8,80.1v-8.3   c0-3.3-2.7-5.9-5.9-5.9h-6.1c-1.9,0-3.7,0.9-4.9,2.4C54.4,70,52.3,71,50,71c0,0,0,0,0,0c-2.3,0-4.4-1-5.9-2.9   c-1.2-1.5-3-2.3-4.9-2.3h-6c-3.3,0-5.9,2.7-5.9,5.9v8.3c-9.1-7-14.6-18-14.6-29.6c0-13.3,7.2-25.7,18.7-32.4c5.8-3.3,12.2-5,18.7-5   c6.5,0,12.9,1.7,18.7,5c11.5,6.7,18.7,19.1,18.7,32.4C87.4,62.2,81.9,73.1,72.8,80.1z"/>
    <path d="M52.9,53.8c-1.7,1.7-4.5,1.7-6.2,0c-0.6-0.6-1.5-0.6-2.1,0c-0.6,0.6-0.6,1.5,0,2.1c1.4,1.4,3.3,2.2,5.2,2.2   s3.8-0.7,5.2-2.2c0.6-0.6,0.6-1.5,0-2.1S53.5,53.2,52.9,53.8z"/></g>
</svg>