<svg xmlns="http://www.w3.org/2000/svg" xmlns:xlink="http://www.w3.org/1999/xlink" version="1.1"
  x="0px" y="0px" viewBox="0 0 512 640" enable-background="new 0 0 512 512" xml:space="preserve">
  <g>
    <g>
      <g>
        <path d="M150.002,326c-1.642,0-3.277-0.67-4.462-1.986c-2.216-2.463-2.017-6.257,0.446-8.474l100-90     c1.761-1.585,4.292-1.985,6.455-1.021C254.605,225.483,256,227.63,256,230v56.528l89.986-80.988     c2.462-2.216,6.257-2.017,8.474,0.446s2.017,6.257-0.446,8.474l-100,90c-1.761,1.585-4.291,1.985-6.455,1.021     C245.395,304.517,244,302.369,244,300v-56.528l-89.986,80.988C152.867,325.491,151.432,326,150.002,326z"/>
      </g>
      <g>
        <path d="M405,456H105c-28.122,0-51-22.879-51-51V145c0-28.122,22.878-51,51-51h300c28.121,0,51,22.878,51,51v260     C456,433.121,433.121,456,405,456z M105,106c-21.505,0-39,17.495-39,39v260c0,21.505,17.495,39,39,39h300     c21.505,0,39-17.495,39-39V145c0-21.505-17.495-39-39-39H105z"/>
      </g>
      <g>
        <path d="M279.998,106c-1.294,0-2.593-0.417-3.682-1.264l-90-70c-2.616-2.035-3.087-5.804-1.053-8.42     c2.034-2.615,5.803-3.087,8.42-1.053l85.819,66.749l46.255-46.255c2.342-2.343,6.143-2.343,8.484,0     c2.344,2.343,2.344,6.142,0,8.485l-50,50C283.079,105.407,281.542,106,279.998,106z"/>
      </g>
    </g>
  </g>
</svg>