<svg xmlns="http://www.w3.org/2000/svg" xmlns:xlink="http://www.w3.org/1999/xlink" version="1.1"
  x="0px" y="0px" viewBox="0 0 100 125" enable-background="new 0 0 100 100" xml:space="preserve">
  <g>
    <path d="M73.885,72.934c-0.552,0-1-0.448-1-1s0.448-1,1-1c4.75,0,8.615-3.97,8.615-8.85V36.912c0-4.88-3.865-8.85-8.615-8.85   H26.615c-4.75,0-8.615,3.97-8.615,8.85v25.172c0,4.88,3.865,8.85,8.615,8.85H70.28c0.552,0,1,0.448,1,1s-0.448,1-1,1H26.615   C20.762,72.934,16,68.066,16,62.084V36.912c0-5.983,4.762-10.85,10.615-10.85h47.271c5.853,0,10.615,4.867,10.615,10.85v25.172   C84.5,68.066,79.738,72.934,73.885,72.934z"/>
  </g>
  <g>
    <path d="M41.536,61.442c-0.174,0-0.348-0.045-0.504-0.136c-0.307-0.179-0.496-0.508-0.496-0.864v-19.7   c0-0.355,0.189-0.685,0.496-0.864c0.308-0.179,0.687-0.182,0.996-0.007l17.429,9.85c0.314,0.177,0.508,0.51,0.508,0.871   s-0.194,0.693-0.508,0.871l-17.429,9.85C41.875,61.399,41.705,61.442,41.536,61.442z M42.536,42.457v16.272l14.396-8.136   L42.536,42.457z"/>
  </g>
  <g>
    <path d="M65.833,68.833H60.5c-0.276,0-0.5-0.224-0.5-0.5s0.224-0.5,0.5-0.5h5.333c0.276,0,0.5,0.224,0.5,0.5   S66.11,68.833,65.833,68.833z"/>
  </g>
  <g>
    <path d="M69.333,68.833h-1.5c-0.276,0-0.5-0.224-0.5-0.5s0.224-0.5,0.5-0.5h1.5c0.276,0,0.5,0.224,0.5,0.5   S69.61,68.833,69.333,68.833z"/>
  </g>
</svg>